<svg width="136" height="136" viewBox="0 0 136 136" fill="none" xmlns="http://www.w3.org/2000/svg">
<g clip-path="url(#clip0)">
<rect width="136" height="136" fill="black"/>
<path d="M93.5 25.5C93.5 11.4166 82.0834 0 68 0C53.9166 0 42.5 11.4166 42.5 25.5C42.5 39.5834 53.9166 51 68 51C82.0834 51 93.5 39.5834 93.5 25.5ZM62.0473 64.0422C46.2878 54.3947 20.7612 51.7438 7.91562 51.0133C3.59922 50.7689 0 54.0573 0 58.2091V117.39C0 121.197 3.07859 124.371 7.03641 124.575C18.6336 125.184 42.0962 127.412 58.3127 135.58C60.8016 136.834 63.7527 135.126 63.7527 132.427V67.0863C63.75 65.8458 63.1364 64.7089 62.0473 64.0422ZM128.084 51.0133C115.241 51.7411 89.7122 54.3947 73.9553 64.0422C72.8663 64.7089 72.2527 65.8909 72.2527 67.1314V132.419C72.2527 135.126 75.2117 136.837 77.7086 135.58C93.9223 127.42 117.372 125.192 128.966 124.583C132.924 124.376 136.003 121.202 136.003 117.396V58.2091C136 54.0573 132.401 50.7689 128.084 51.0133Z" fill="#FDFA73"/>
</g>
<defs>
<clipPath id="clip0">
<rect width="136" height="136" fill="black"/>
</clipPath>
</defs>
</svg>
