<svg width="87" height="116" viewBox="0 0 87 116" fill="none" xmlns="http://www.w3.org/2000/svg">
<g clip-path="url(#clip0)">
<path d="M42.75 0C50.7581 0 57.25 6.49192 57.25 14.5C57.25 22.5081 50.7581 29 42.75 29C34.7419 29 28.25 22.5081 28.25 14.5C28.25 6.49192 34.7419 0 42.75 0ZM53.625 32.625H51.0513C45.9058 34.991 39.816 35.0932 34.4488 32.625H31.875C25.8688 32.625 21 37.4938 21 43.5V74.3125C21 77.3156 23.4344 79.75 26.4375 79.75H30.0625V110.562C30.0625 113.566 32.4969 116 35.5 116H50C53.0031 116 55.4375 113.566 55.4375 110.562V79.75H59.0625C62.0656 79.75 64.5 77.3156 64.5 74.3125V43.5C64.5 37.4938 59.6312 32.625 53.625 32.625Z" fill="#FDFA73"/>
</g>
<g clip-path="url(#clip1)">
<path d="M16.9399 14.5C23.177 14.5 28.2332 19.5562 28.2332 25.7933C28.2332 32.0303 23.177 37.0865 16.9399 37.0865C10.7028 37.0865 5.64663 32.0303 5.64663 25.7933C5.64663 19.5562 10.7028 14.5 16.9399 14.5ZM25.4099 39.9099H23.4053C19.3978 41.7526 14.6548 41.8322 10.4745 39.9099H8.46995C3.79207 39.9099 0 43.7019 0 48.3798V72.378C0 74.717 1.89603 76.613 4.23498 76.613H7.05829V100.611C7.05829 102.95 8.95433 104.846 11.2933 104.846H22.5865C24.9255 104.846 26.8215 102.95 26.8215 100.611V76.613H29.6448C31.9838 76.613 33.8798 74.717 33.8798 72.378V48.3798C33.8798 43.7019 30.0877 39.9099 25.4099 39.9099Z" fill="#FDFA73"/>
</g>
<g clip-path="url(#clip2)">
<path d="M69.363 14.5C75.6001 14.5 80.6563 19.5562 80.6563 25.7933C80.6563 32.0303 75.6001 37.0865 69.363 37.0865C63.1259 37.0865 58.0697 32.0303 58.0697 25.7933C58.0697 19.5562 63.1259 14.5 69.363 14.5ZM77.833 39.9099H75.8284C71.8209 41.7526 67.0779 41.8322 62.8976 39.9099H60.893C56.2152 39.9099 52.4231 43.7019 52.4231 48.3798V72.378C52.4231 74.717 54.3191 76.613 56.6581 76.613H59.4814V100.611C59.4814 102.95 61.3774 104.846 63.7164 104.846H75.0096C77.3486 104.846 79.2446 102.95 79.2446 100.611V76.613H82.0679C84.4069 76.613 86.3029 74.717 86.3029 72.378V48.3798C86.3029 43.7019 82.5108 39.9099 77.833 39.9099Z" fill="#FDFA73"/>
</g>
<defs>
<clipPath id="clip0">
<rect width="43.5" height="116" fill="white" transform="translate(21)"/>
</clipPath>
<clipPath id="clip1">
<rect width="33.8798" height="90.3462" fill="white" transform="translate(0 14.5)"/>
</clipPath>
<clipPath id="clip2">
<rect width="33.8798" height="90.3462" fill="white" transform="translate(52.4231 14.5)"/>
</clipPath>
</defs>
</svg>
