<svg width="76" height="122" viewBox="0 0 76 122" fill="none" xmlns="http://www.w3.org/2000/svg">
<path d="M73.15 22.8C74.7239 22.8 76 21.5239 76 19.95V10.45C76 8.87606 74.7239 7.59998 73.15 7.59998H2.85C1.27609 7.59998 0 8.87606 0 10.45V21.0776C0 22.6515 1.27609 23.9276 2.85 23.9276H23.104C29.5896 23.9276 34.566 26.2927 37.5844 30.4H2.85C1.27609 30.4 0 31.6761 0 33.25V42.75C0 44.3239 1.27609 45.6 2.85 45.6H40.5548C39.0783 54.1704 32.7266 59.5251 22.8 59.5251H2.85C1.27609 59.5251 0 60.8012 0 62.3751V74.9654C0 75.7608 0.3325 76.5201 0.916987 77.0597L40.1168 113.244C40.6433 113.73 41.3334 114 42.0499 114H61.6583C64.2528 114 65.4977 110.816 63.5913 109.056L27.7569 75.9777C45.9254 75.4219 58.9036 63.2963 60.6074 45.6H73.15C74.7239 45.6 76 44.3239 76 42.75V33.25C76 31.6761 74.7239 30.4 73.15 30.4H59.2111C58.3832 27.659 57.2446 25.1166 55.8263 22.8H73.15Z" fill="#FDFA73"/>
</svg>
